<mxfile host="app.diagrams.net" agent="Mozilla/5.0 (Windows NT 10.0; Win64; x64) AppleWebKit/537.36 (KHTML, like Gecko) Chrome/131.0.0.0 Safari/537.36" version="25.0.3">
  <diagram name="Seite-1" id="XxgukZAxLoTID8jW_va8">
    <mxGraphModel dx="2769" dy="1336" grid="0" gridSize="10" guides="1" tooltips="1" connect="1" arrows="1" fold="1" page="0" pageScale="1" pageWidth="827" pageHeight="1169" math="0" shadow="0">
      <root>
        <mxCell id="0" />
        <mxCell id="1" parent="0" />
        <mxCell id="mmT6CkFbcpTNxsNClgFu-23" value="&lt;span style=&quot;font-weight: 400;&quot;&gt;Würfel&lt;/span&gt;" style="swimlane;fontStyle=1;align=center;verticalAlign=top;childLayout=stackLayout;horizontal=1;startSize=26;horizontalStack=0;resizeParent=1;resizeParentMax=0;resizeLast=0;collapsible=1;marginBottom=0;whiteSpace=wrap;html=1;" vertex="1" parent="1">
          <mxGeometry x="-78" y="-144" width="160" height="86" as="geometry" />
        </mxCell>
        <mxCell id="mmT6CkFbcpTNxsNClgFu-24" value="+ field: type" style="text;strokeColor=none;fillColor=none;align=left;verticalAlign=top;spacingLeft=4;spacingRight=4;overflow=hidden;rotatable=0;points=[[0,0.5],[1,0.5]];portConstraint=eastwest;whiteSpace=wrap;html=1;" vertex="1" parent="mmT6CkFbcpTNxsNClgFu-23">
          <mxGeometry y="26" width="160" height="26" as="geometry" />
        </mxCell>
        <mxCell id="mmT6CkFbcpTNxsNClgFu-25" value="" style="line;strokeWidth=1;fillColor=none;align=left;verticalAlign=middle;spacingTop=-1;spacingLeft=3;spacingRight=3;rotatable=0;labelPosition=right;points=[];portConstraint=eastwest;strokeColor=inherit;" vertex="1" parent="mmT6CkFbcpTNxsNClgFu-23">
          <mxGeometry y="52" width="160" height="8" as="geometry" />
        </mxCell>
        <mxCell id="mmT6CkFbcpTNxsNClgFu-26" value="+ method(type): type" style="text;strokeColor=none;fillColor=none;align=left;verticalAlign=top;spacingLeft=4;spacingRight=4;overflow=hidden;rotatable=0;points=[[0,0.5],[1,0.5]];portConstraint=eastwest;whiteSpace=wrap;html=1;" vertex="1" parent="mmT6CkFbcpTNxsNClgFu-23">
          <mxGeometry y="60" width="160" height="26" as="geometry" />
        </mxCell>
        <mxCell id="mmT6CkFbcpTNxsNClgFu-31" value="&lt;span style=&quot;font-weight: 400;&quot;&gt;Negativer Würfel&lt;/span&gt;" style="swimlane;fontStyle=1;align=center;verticalAlign=top;childLayout=stackLayout;horizontal=1;startSize=26;horizontalStack=0;resizeParent=1;resizeParentMax=0;resizeLast=0;collapsible=1;marginBottom=0;whiteSpace=wrap;html=1;" vertex="1" parent="1">
          <mxGeometry x="-346" y="-144" width="160" height="86" as="geometry" />
        </mxCell>
        <mxCell id="mmT6CkFbcpTNxsNClgFu-32" value="+ field: type" style="text;strokeColor=none;fillColor=none;align=left;verticalAlign=top;spacingLeft=4;spacingRight=4;overflow=hidden;rotatable=0;points=[[0,0.5],[1,0.5]];portConstraint=eastwest;whiteSpace=wrap;html=1;" vertex="1" parent="mmT6CkFbcpTNxsNClgFu-31">
          <mxGeometry y="26" width="160" height="26" as="geometry" />
        </mxCell>
        <mxCell id="mmT6CkFbcpTNxsNClgFu-33" value="" style="line;strokeWidth=1;fillColor=none;align=left;verticalAlign=middle;spacingTop=-1;spacingLeft=3;spacingRight=3;rotatable=0;labelPosition=right;points=[];portConstraint=eastwest;strokeColor=inherit;" vertex="1" parent="mmT6CkFbcpTNxsNClgFu-31">
          <mxGeometry y="52" width="160" height="8" as="geometry" />
        </mxCell>
        <mxCell id="mmT6CkFbcpTNxsNClgFu-34" value="+ method(type): type" style="text;strokeColor=none;fillColor=none;align=left;verticalAlign=top;spacingLeft=4;spacingRight=4;overflow=hidden;rotatable=0;points=[[0,0.5],[1,0.5]];portConstraint=eastwest;whiteSpace=wrap;html=1;" vertex="1" parent="mmT6CkFbcpTNxsNClgFu-31">
          <mxGeometry y="60" width="160" height="26" as="geometry" />
        </mxCell>
        <mxCell id="mmT6CkFbcpTNxsNClgFu-35" value="&lt;span style=&quot;font-weight: 400;&quot;&gt;Spielfeld&lt;/span&gt;" style="swimlane;fontStyle=1;align=center;verticalAlign=top;childLayout=stackLayout;horizontal=1;startSize=26;horizontalStack=0;resizeParent=1;resizeParentMax=0;resizeLast=0;collapsible=1;marginBottom=0;whiteSpace=wrap;html=1;" vertex="1" parent="1">
          <mxGeometry x="236" y="-144" width="160" height="86" as="geometry" />
        </mxCell>
        <mxCell id="mmT6CkFbcpTNxsNClgFu-36" value="+ field: type" style="text;strokeColor=none;fillColor=none;align=left;verticalAlign=top;spacingLeft=4;spacingRight=4;overflow=hidden;rotatable=0;points=[[0,0.5],[1,0.5]];portConstraint=eastwest;whiteSpace=wrap;html=1;" vertex="1" parent="mmT6CkFbcpTNxsNClgFu-35">
          <mxGeometry y="26" width="160" height="26" as="geometry" />
        </mxCell>
        <mxCell id="mmT6CkFbcpTNxsNClgFu-82" value="" style="endArrow=diamondThin;endFill=0;endSize=24;html=1;rounded=0;fontSize=12;curved=1;entryX=1;entryY=0.5;entryDx=0;entryDy=0;" edge="1" parent="mmT6CkFbcpTNxsNClgFu-35" target="mmT6CkFbcpTNxsNClgFu-24">
          <mxGeometry width="160" relative="1" as="geometry">
            <mxPoint y="41" as="sourcePoint" />
            <mxPoint x="160" y="41" as="targetPoint" />
          </mxGeometry>
        </mxCell>
        <mxCell id="mmT6CkFbcpTNxsNClgFu-37" value="" style="line;strokeWidth=1;fillColor=none;align=left;verticalAlign=middle;spacingTop=-1;spacingLeft=3;spacingRight=3;rotatable=0;labelPosition=right;points=[];portConstraint=eastwest;strokeColor=inherit;" vertex="1" parent="mmT6CkFbcpTNxsNClgFu-35">
          <mxGeometry y="52" width="160" height="8" as="geometry" />
        </mxCell>
        <mxCell id="mmT6CkFbcpTNxsNClgFu-38" value="+ method(type): type" style="text;strokeColor=none;fillColor=none;align=left;verticalAlign=top;spacingLeft=4;spacingRight=4;overflow=hidden;rotatable=0;points=[[0,0.5],[1,0.5]];portConstraint=eastwest;whiteSpace=wrap;html=1;" vertex="1" parent="mmT6CkFbcpTNxsNClgFu-35">
          <mxGeometry y="60" width="160" height="26" as="geometry" />
        </mxCell>
        <mxCell id="mmT6CkFbcpTNxsNClgFu-102" value="" style="endArrow=diamondThin;endFill=0;endSize=24;html=1;rounded=0;fontSize=12;curved=1;entryX=0.5;entryY=0;entryDx=0;entryDy=0;" edge="1" parent="mmT6CkFbcpTNxsNClgFu-35" target="mmT6CkFbcpTNxsNClgFu-59">
          <mxGeometry width="160" relative="1" as="geometry">
            <mxPoint x="40" y="85" as="sourcePoint" />
            <mxPoint x="200" y="85" as="targetPoint" />
          </mxGeometry>
        </mxCell>
        <mxCell id="mmT6CkFbcpTNxsNClgFu-39" value="&lt;span style=&quot;font-weight: 400;&quot;&gt;Figuren&lt;/span&gt;" style="swimlane;fontStyle=1;align=center;verticalAlign=top;childLayout=stackLayout;horizontal=1;startSize=26;horizontalStack=0;resizeParent=1;resizeParentMax=0;resizeLast=0;collapsible=1;marginBottom=0;whiteSpace=wrap;html=1;" vertex="1" parent="1">
          <mxGeometry x="664" y="-144" width="160" height="86" as="geometry" />
        </mxCell>
        <mxCell id="mmT6CkFbcpTNxsNClgFu-40" value="+ field: type" style="text;strokeColor=none;fillColor=none;align=left;verticalAlign=top;spacingLeft=4;spacingRight=4;overflow=hidden;rotatable=0;points=[[0,0.5],[1,0.5]];portConstraint=eastwest;whiteSpace=wrap;html=1;" vertex="1" parent="mmT6CkFbcpTNxsNClgFu-39">
          <mxGeometry y="26" width="160" height="26" as="geometry" />
        </mxCell>
        <mxCell id="mmT6CkFbcpTNxsNClgFu-41" value="" style="line;strokeWidth=1;fillColor=none;align=left;verticalAlign=middle;spacingTop=-1;spacingLeft=3;spacingRight=3;rotatable=0;labelPosition=right;points=[];portConstraint=eastwest;strokeColor=inherit;" vertex="1" parent="mmT6CkFbcpTNxsNClgFu-39">
          <mxGeometry y="52" width="160" height="8" as="geometry" />
        </mxCell>
        <mxCell id="mmT6CkFbcpTNxsNClgFu-42" value="+ method(type): type" style="text;strokeColor=none;fillColor=none;align=left;verticalAlign=top;spacingLeft=4;spacingRight=4;overflow=hidden;rotatable=0;points=[[0,0.5],[1,0.5]];portConstraint=eastwest;whiteSpace=wrap;html=1;" vertex="1" parent="mmT6CkFbcpTNxsNClgFu-39">
          <mxGeometry y="60" width="160" height="26" as="geometry" />
        </mxCell>
        <mxCell id="mmT6CkFbcpTNxsNClgFu-55" value="&lt;span style=&quot;font-weight: 400;&quot;&gt;Felder&lt;/span&gt;" style="swimlane;fontStyle=1;align=center;verticalAlign=top;childLayout=stackLayout;horizontal=1;startSize=26;horizontalStack=0;resizeParent=1;resizeParentMax=0;resizeLast=0;collapsible=1;marginBottom=0;whiteSpace=wrap;html=1;" vertex="1" parent="1">
          <mxGeometry x="236" y="50" width="160" height="112" as="geometry" />
        </mxCell>
        <mxCell id="mmT6CkFbcpTNxsNClgFu-56" value="effekt" style="text;strokeColor=none;fillColor=none;align=left;verticalAlign=top;spacingLeft=4;spacingRight=4;overflow=hidden;rotatable=0;points=[[0,0.5],[1,0.5]];portConstraint=eastwest;whiteSpace=wrap;html=1;" vertex="1" parent="mmT6CkFbcpTNxsNClgFu-55">
          <mxGeometry y="26" width="160" height="26" as="geometry" />
        </mxCell>
        <mxCell id="mmT6CkFbcpTNxsNClgFu-109" value="besetzt" style="text;strokeColor=none;fillColor=none;align=left;verticalAlign=top;spacingLeft=4;spacingRight=4;overflow=hidden;rotatable=0;points=[[0,0.5],[1,0.5]];portConstraint=eastwest;whiteSpace=wrap;html=1;" vertex="1" parent="mmT6CkFbcpTNxsNClgFu-55">
          <mxGeometry y="52" width="160" height="26" as="geometry" />
        </mxCell>
        <mxCell id="mmT6CkFbcpTNxsNClgFu-57" value="" style="line;strokeWidth=1;fillColor=none;align=left;verticalAlign=middle;spacingTop=-1;spacingLeft=3;spacingRight=3;rotatable=0;labelPosition=right;points=[];portConstraint=eastwest;strokeColor=inherit;" vertex="1" parent="mmT6CkFbcpTNxsNClgFu-55">
          <mxGeometry y="78" width="160" height="8" as="geometry" />
        </mxCell>
        <mxCell id="mmT6CkFbcpTNxsNClgFu-58" value="+ method(type): type" style="text;strokeColor=none;fillColor=none;align=left;verticalAlign=top;spacingLeft=4;spacingRight=4;overflow=hidden;rotatable=0;points=[[0,0.5],[1,0.5]];portConstraint=eastwest;whiteSpace=wrap;html=1;" vertex="1" parent="mmT6CkFbcpTNxsNClgFu-55">
          <mxGeometry y="86" width="160" height="26" as="geometry" />
        </mxCell>
        <mxCell id="mmT6CkFbcpTNxsNClgFu-59" value="&lt;span style=&quot;font-weight: 400;&quot;&gt;Shop&lt;/span&gt;" style="swimlane;fontStyle=1;align=center;verticalAlign=top;childLayout=stackLayout;horizontal=1;startSize=26;horizontalStack=0;resizeParent=1;resizeParentMax=0;resizeLast=0;collapsible=1;marginBottom=0;whiteSpace=wrap;html=1;" vertex="1" parent="1">
          <mxGeometry x="-73" y="80" width="160" height="86" as="geometry" />
        </mxCell>
        <mxCell id="mmT6CkFbcpTNxsNClgFu-60" value="+ field: type" style="text;strokeColor=none;fillColor=none;align=left;verticalAlign=top;spacingLeft=4;spacingRight=4;overflow=hidden;rotatable=0;points=[[0,0.5],[1,0.5]];portConstraint=eastwest;whiteSpace=wrap;html=1;" vertex="1" parent="mmT6CkFbcpTNxsNClgFu-59">
          <mxGeometry y="26" width="160" height="26" as="geometry" />
        </mxCell>
        <mxCell id="mmT6CkFbcpTNxsNClgFu-61" value="" style="line;strokeWidth=1;fillColor=none;align=left;verticalAlign=middle;spacingTop=-1;spacingLeft=3;spacingRight=3;rotatable=0;labelPosition=right;points=[];portConstraint=eastwest;strokeColor=inherit;" vertex="1" parent="mmT6CkFbcpTNxsNClgFu-59">
          <mxGeometry y="52" width="160" height="8" as="geometry" />
        </mxCell>
        <mxCell id="mmT6CkFbcpTNxsNClgFu-62" value="+ method(type): type" style="text;strokeColor=none;fillColor=none;align=left;verticalAlign=top;spacingLeft=4;spacingRight=4;overflow=hidden;rotatable=0;points=[[0,0.5],[1,0.5]];portConstraint=eastwest;whiteSpace=wrap;html=1;" vertex="1" parent="mmT6CkFbcpTNxsNClgFu-59">
          <mxGeometry y="60" width="160" height="26" as="geometry" />
        </mxCell>
        <mxCell id="mmT6CkFbcpTNxsNClgFu-63" value="" style="endArrow=diamondThin;endFill=0;endSize=24;html=1;rounded=0;fontSize=12;curved=1;entryX=0.506;entryY=1.077;entryDx=0;entryDy=0;entryPerimeter=0;exitX=0.5;exitY=0;exitDx=0;exitDy=0;" edge="1" parent="1" source="mmT6CkFbcpTNxsNClgFu-74" target="mmT6CkFbcpTNxsNClgFu-62">
          <mxGeometry width="160" relative="1" as="geometry">
            <mxPoint x="-16" y="355" as="sourcePoint" />
            <mxPoint x="144" y="355" as="targetPoint" />
          </mxGeometry>
        </mxCell>
        <mxCell id="mmT6CkFbcpTNxsNClgFu-64" value="" style="endArrow=diamondThin;endFill=1;endSize=24;html=1;rounded=0;fontSize=12;curved=1;" edge="1" parent="1">
          <mxGeometry width="160" relative="1" as="geometry">
            <mxPoint x="674" y="586" as="sourcePoint" />
            <mxPoint x="834" y="586" as="targetPoint" />
          </mxGeometry>
        </mxCell>
        <mxCell id="mmT6CkFbcpTNxsNClgFu-65" value="" style="endArrow=open;endFill=1;endSize=12;html=1;rounded=0;fontSize=12;curved=1;" edge="1" parent="1">
          <mxGeometry width="160" relative="1" as="geometry">
            <mxPoint x="664" y="551" as="sourcePoint" />
            <mxPoint x="824" y="551" as="targetPoint" />
          </mxGeometry>
        </mxCell>
        <mxCell id="mmT6CkFbcpTNxsNClgFu-66" value="&lt;span style=&quot;font-weight: 400;&quot;&gt;Würfel&lt;/span&gt;" style="swimlane;fontStyle=1;align=center;verticalAlign=top;childLayout=stackLayout;horizontal=1;startSize=26;horizontalStack=0;resizeParent=1;resizeParentMax=0;resizeLast=0;collapsible=1;marginBottom=0;whiteSpace=wrap;html=1;" vertex="1" parent="1">
          <mxGeometry x="-617" y="-138" width="160" height="86" as="geometry" />
        </mxCell>
        <mxCell id="mmT6CkFbcpTNxsNClgFu-67" value="+ field: type" style="text;strokeColor=none;fillColor=none;align=left;verticalAlign=top;spacingLeft=4;spacingRight=4;overflow=hidden;rotatable=0;points=[[0,0.5],[1,0.5]];portConstraint=eastwest;whiteSpace=wrap;html=1;" vertex="1" parent="mmT6CkFbcpTNxsNClgFu-66">
          <mxGeometry y="26" width="160" height="26" as="geometry" />
        </mxCell>
        <mxCell id="mmT6CkFbcpTNxsNClgFu-68" value="" style="line;strokeWidth=1;fillColor=none;align=left;verticalAlign=middle;spacingTop=-1;spacingLeft=3;spacingRight=3;rotatable=0;labelPosition=right;points=[];portConstraint=eastwest;strokeColor=inherit;" vertex="1" parent="mmT6CkFbcpTNxsNClgFu-66">
          <mxGeometry y="52" width="160" height="8" as="geometry" />
        </mxCell>
        <mxCell id="mmT6CkFbcpTNxsNClgFu-69" value="+ method(type): type" style="text;strokeColor=none;fillColor=none;align=left;verticalAlign=top;spacingLeft=4;spacingRight=4;overflow=hidden;rotatable=0;points=[[0,0.5],[1,0.5]];portConstraint=eastwest;whiteSpace=wrap;html=1;" vertex="1" parent="mmT6CkFbcpTNxsNClgFu-66">
          <mxGeometry y="60" width="160" height="26" as="geometry" />
        </mxCell>
        <mxCell id="mmT6CkFbcpTNxsNClgFu-70" value="&lt;span style=&quot;font-weight: 400;&quot;&gt;Inventar&lt;/span&gt;" style="swimlane;fontStyle=1;align=center;verticalAlign=top;childLayout=stackLayout;horizontal=1;startSize=26;horizontalStack=0;resizeParent=1;resizeParentMax=0;resizeLast=0;collapsible=1;marginBottom=0;whiteSpace=wrap;html=1;" vertex="1" parent="1">
          <mxGeometry x="443" y="356" width="160" height="86" as="geometry" />
        </mxCell>
        <mxCell id="mmT6CkFbcpTNxsNClgFu-71" value="+ field: type" style="text;strokeColor=none;fillColor=none;align=left;verticalAlign=top;spacingLeft=4;spacingRight=4;overflow=hidden;rotatable=0;points=[[0,0.5],[1,0.5]];portConstraint=eastwest;whiteSpace=wrap;html=1;" vertex="1" parent="mmT6CkFbcpTNxsNClgFu-70">
          <mxGeometry y="26" width="160" height="26" as="geometry" />
        </mxCell>
        <mxCell id="mmT6CkFbcpTNxsNClgFu-72" value="" style="line;strokeWidth=1;fillColor=none;align=left;verticalAlign=middle;spacingTop=-1;spacingLeft=3;spacingRight=3;rotatable=0;labelPosition=right;points=[];portConstraint=eastwest;strokeColor=inherit;" vertex="1" parent="mmT6CkFbcpTNxsNClgFu-70">
          <mxGeometry y="52" width="160" height="8" as="geometry" />
        </mxCell>
        <mxCell id="mmT6CkFbcpTNxsNClgFu-73" value="+ method(type): type" style="text;strokeColor=none;fillColor=none;align=left;verticalAlign=top;spacingLeft=4;spacingRight=4;overflow=hidden;rotatable=0;points=[[0,0.5],[1,0.5]];portConstraint=eastwest;whiteSpace=wrap;html=1;" vertex="1" parent="mmT6CkFbcpTNxsNClgFu-70">
          <mxGeometry y="60" width="160" height="26" as="geometry" />
        </mxCell>
        <mxCell id="mmT6CkFbcpTNxsNClgFu-74" value="&lt;span style=&quot;font-weight: 400;&quot;&gt;Münzen&lt;/span&gt;" style="swimlane;fontStyle=1;align=center;verticalAlign=top;childLayout=stackLayout;horizontal=1;startSize=26;horizontalStack=0;resizeParent=1;resizeParentMax=0;resizeLast=0;collapsible=1;marginBottom=0;whiteSpace=wrap;html=1;" vertex="1" parent="1">
          <mxGeometry x="-76" y="356" width="160" height="86" as="geometry" />
        </mxCell>
        <mxCell id="mmT6CkFbcpTNxsNClgFu-75" value="+ field: type" style="text;strokeColor=none;fillColor=none;align=left;verticalAlign=top;spacingLeft=4;spacingRight=4;overflow=hidden;rotatable=0;points=[[0,0.5],[1,0.5]];portConstraint=eastwest;whiteSpace=wrap;html=1;" vertex="1" parent="mmT6CkFbcpTNxsNClgFu-74">
          <mxGeometry y="26" width="160" height="26" as="geometry" />
        </mxCell>
        <mxCell id="mmT6CkFbcpTNxsNClgFu-76" value="" style="line;strokeWidth=1;fillColor=none;align=left;verticalAlign=middle;spacingTop=-1;spacingLeft=3;spacingRight=3;rotatable=0;labelPosition=right;points=[];portConstraint=eastwest;strokeColor=inherit;" vertex="1" parent="mmT6CkFbcpTNxsNClgFu-74">
          <mxGeometry y="52" width="160" height="8" as="geometry" />
        </mxCell>
        <mxCell id="mmT6CkFbcpTNxsNClgFu-77" value="+ method(type): type" style="text;strokeColor=none;fillColor=none;align=left;verticalAlign=top;spacingLeft=4;spacingRight=4;overflow=hidden;rotatable=0;points=[[0,0.5],[1,0.5]];portConstraint=eastwest;whiteSpace=wrap;html=1;" vertex="1" parent="mmT6CkFbcpTNxsNClgFu-74">
          <mxGeometry y="60" width="160" height="26" as="geometry" />
        </mxCell>
        <mxCell id="mmT6CkFbcpTNxsNClgFu-78" value="&lt;span style=&quot;font-weight: 400;&quot;&gt;Spieler&lt;/span&gt;" style="swimlane;fontStyle=1;align=center;verticalAlign=top;childLayout=stackLayout;horizontal=1;startSize=26;horizontalStack=0;resizeParent=1;resizeParentMax=0;resizeLast=0;collapsible=1;marginBottom=0;whiteSpace=wrap;html=1;" vertex="1" parent="1">
          <mxGeometry x="762" y="352" width="160" height="86" as="geometry" />
        </mxCell>
        <mxCell id="mmT6CkFbcpTNxsNClgFu-79" value="+ field: type" style="text;strokeColor=none;fillColor=none;align=left;verticalAlign=top;spacingLeft=4;spacingRight=4;overflow=hidden;rotatable=0;points=[[0,0.5],[1,0.5]];portConstraint=eastwest;whiteSpace=wrap;html=1;" vertex="1" parent="mmT6CkFbcpTNxsNClgFu-78">
          <mxGeometry y="26" width="160" height="26" as="geometry" />
        </mxCell>
        <mxCell id="mmT6CkFbcpTNxsNClgFu-94" value="" style="endArrow=diamondThin;endFill=1;endSize=24;html=1;rounded=0;fontSize=12;curved=1;entryX=1;entryY=0.5;entryDx=0;entryDy=0;" edge="1" parent="mmT6CkFbcpTNxsNClgFu-78" target="mmT6CkFbcpTNxsNClgFu-71">
          <mxGeometry width="160" relative="1" as="geometry">
            <mxPoint y="42.5" as="sourcePoint" />
            <mxPoint x="160" y="42.5" as="targetPoint" />
          </mxGeometry>
        </mxCell>
        <mxCell id="mmT6CkFbcpTNxsNClgFu-80" value="" style="line;strokeWidth=1;fillColor=none;align=left;verticalAlign=middle;spacingTop=-1;spacingLeft=3;spacingRight=3;rotatable=0;labelPosition=right;points=[];portConstraint=eastwest;strokeColor=inherit;" vertex="1" parent="mmT6CkFbcpTNxsNClgFu-78">
          <mxGeometry y="52" width="160" height="8" as="geometry" />
        </mxCell>
        <mxCell id="mmT6CkFbcpTNxsNClgFu-81" value="+ method(type): type" style="text;strokeColor=none;fillColor=none;align=left;verticalAlign=top;spacingLeft=4;spacingRight=4;overflow=hidden;rotatable=0;points=[[0,0.5],[1,0.5]];portConstraint=eastwest;whiteSpace=wrap;html=1;" vertex="1" parent="mmT6CkFbcpTNxsNClgFu-78">
          <mxGeometry y="60" width="160" height="26" as="geometry" />
        </mxCell>
        <mxCell id="mmT6CkFbcpTNxsNClgFu-83" value="" style="endArrow=diamondThin;endFill=0;endSize=24;html=1;rounded=0;fontSize=12;curved=1;entryX=0;entryY=0.5;entryDx=0;entryDy=0;" edge="1" parent="1" target="mmT6CkFbcpTNxsNClgFu-40">
          <mxGeometry width="160" relative="1" as="geometry">
            <mxPoint x="396" y="-99" as="sourcePoint" />
            <mxPoint x="556" y="-99" as="targetPoint" />
          </mxGeometry>
        </mxCell>
        <mxCell id="mmT6CkFbcpTNxsNClgFu-84" value="" style="endArrow=diamondThin;endFill=1;endSize=24;html=1;rounded=0;fontSize=12;curved=1;entryX=0.5;entryY=0;entryDx=0;entryDy=0;" edge="1" parent="1" target="mmT6CkFbcpTNxsNClgFu-55">
          <mxGeometry width="160" relative="1" as="geometry">
            <mxPoint x="317" y="-58" as="sourcePoint" />
            <mxPoint x="477" y="-58" as="targetPoint" />
          </mxGeometry>
        </mxCell>
        <mxCell id="mmT6CkFbcpTNxsNClgFu-85" value="" style="endArrow=open;endFill=1;endSize=12;html=1;rounded=0;fontSize=12;curved=1;entryX=1;entryY=0.5;entryDx=0;entryDy=0;exitX=0;exitY=0.5;exitDx=0;exitDy=0;" edge="1" parent="1" source="mmT6CkFbcpTNxsNClgFu-24" target="mmT6CkFbcpTNxsNClgFu-32">
          <mxGeometry width="160" relative="1" as="geometry">
            <mxPoint x="-78" y="-101.5" as="sourcePoint" />
            <mxPoint x="82" y="-101.5" as="targetPoint" />
          </mxGeometry>
        </mxCell>
        <mxCell id="mmT6CkFbcpTNxsNClgFu-93" value="" style="endArrow=diamondThin;endFill=1;endSize=24;html=1;rounded=0;fontSize=12;curved=1;entryX=0.5;entryY=0;entryDx=0;entryDy=0;" edge="1" parent="1" target="mmT6CkFbcpTNxsNClgFu-78">
          <mxGeometry width="160" relative="1" as="geometry">
            <mxPoint x="738" y="-58" as="sourcePoint" />
            <mxPoint x="741" y="37" as="targetPoint" />
          </mxGeometry>
        </mxCell>
        <mxCell id="mmT6CkFbcpTNxsNClgFu-96" value="&lt;span style=&quot;font-weight: 400;&quot;&gt;Chatroom&lt;/span&gt;" style="swimlane;fontStyle=1;align=center;verticalAlign=top;childLayout=stackLayout;horizontal=1;startSize=26;horizontalStack=0;resizeParent=1;resizeParentMax=0;resizeLast=0;collapsible=1;marginBottom=0;whiteSpace=wrap;html=1;" vertex="1" parent="1">
          <mxGeometry x="542" y="95" width="160" height="86" as="geometry" />
        </mxCell>
        <mxCell id="mmT6CkFbcpTNxsNClgFu-97" value="+ field: type" style="text;strokeColor=none;fillColor=none;align=left;verticalAlign=top;spacingLeft=4;spacingRight=4;overflow=hidden;rotatable=0;points=[[0,0.5],[1,0.5]];portConstraint=eastwest;whiteSpace=wrap;html=1;" vertex="1" parent="mmT6CkFbcpTNxsNClgFu-96">
          <mxGeometry y="26" width="160" height="26" as="geometry" />
        </mxCell>
        <mxCell id="mmT6CkFbcpTNxsNClgFu-98" value="" style="line;strokeWidth=1;fillColor=none;align=left;verticalAlign=middle;spacingTop=-1;spacingLeft=3;spacingRight=3;rotatable=0;labelPosition=right;points=[];portConstraint=eastwest;strokeColor=inherit;" vertex="1" parent="mmT6CkFbcpTNxsNClgFu-96">
          <mxGeometry y="52" width="160" height="8" as="geometry" />
        </mxCell>
        <mxCell id="mmT6CkFbcpTNxsNClgFu-99" value="+ method(type): type" style="text;strokeColor=none;fillColor=none;align=left;verticalAlign=top;spacingLeft=4;spacingRight=4;overflow=hidden;rotatable=0;points=[[0,0.5],[1,0.5]];portConstraint=eastwest;whiteSpace=wrap;html=1;" vertex="1" parent="mmT6CkFbcpTNxsNClgFu-96">
          <mxGeometry y="60" width="160" height="26" as="geometry" />
        </mxCell>
        <mxCell id="mmT6CkFbcpTNxsNClgFu-100" value="" style="endArrow=diamondThin;endFill=0;endSize=24;html=1;rounded=0;fontSize=12;curved=1;entryX=1;entryY=0.5;entryDx=0;entryDy=0;" edge="1" parent="1" target="mmT6CkFbcpTNxsNClgFu-75">
          <mxGeometry width="160" relative="1" as="geometry">
            <mxPoint x="443" y="400" as="sourcePoint" />
            <mxPoint x="289" y="398" as="targetPoint" />
          </mxGeometry>
        </mxCell>
        <mxCell id="mmT6CkFbcpTNxsNClgFu-101" value="" style="endArrow=diamondThin;endFill=0;endSize=24;html=1;rounded=0;fontSize=12;curved=1;entryX=0.431;entryY=1.077;entryDx=0;entryDy=0;entryPerimeter=0;" edge="1" parent="1" target="mmT6CkFbcpTNxsNClgFu-73">
          <mxGeometry width="160" relative="1" as="geometry">
            <mxPoint x="-101" y="570" as="sourcePoint" />
            <mxPoint x="59" y="570" as="targetPoint" />
          </mxGeometry>
        </mxCell>
        <mxCell id="mmT6CkFbcpTNxsNClgFu-103" value="&lt;span style=&quot;font-weight: 400;&quot;&gt;Item&lt;/span&gt;" style="swimlane;fontStyle=1;align=center;verticalAlign=top;childLayout=stackLayout;horizontal=1;startSize=26;horizontalStack=0;resizeParent=1;resizeParentMax=0;resizeLast=0;collapsible=1;marginBottom=0;whiteSpace=wrap;html=1;" vertex="1" parent="1">
          <mxGeometry x="-261" y="532" width="160" height="86" as="geometry" />
        </mxCell>
        <mxCell id="mmT6CkFbcpTNxsNClgFu-110" value="" style="endArrow=diamondThin;endFill=0;endSize=24;html=1;rounded=0;fontSize=12;curved=1;entryX=-0.006;entryY=0;entryDx=0;entryDy=0;entryPerimeter=0;" edge="1" parent="mmT6CkFbcpTNxsNClgFu-103" target="mmT6CkFbcpTNxsNClgFu-62">
          <mxGeometry width="160" relative="1" as="geometry">
            <mxPoint x="73" as="sourcePoint" />
            <mxPoint x="233" as="targetPoint" />
          </mxGeometry>
        </mxCell>
        <mxCell id="mmT6CkFbcpTNxsNClgFu-104" value="+ field: type" style="text;strokeColor=none;fillColor=none;align=left;verticalAlign=top;spacingLeft=4;spacingRight=4;overflow=hidden;rotatable=0;points=[[0,0.5],[1,0.5]];portConstraint=eastwest;whiteSpace=wrap;html=1;" vertex="1" parent="mmT6CkFbcpTNxsNClgFu-103">
          <mxGeometry y="26" width="160" height="26" as="geometry" />
        </mxCell>
        <mxCell id="mmT6CkFbcpTNxsNClgFu-105" value="" style="line;strokeWidth=1;fillColor=none;align=left;verticalAlign=middle;spacingTop=-1;spacingLeft=3;spacingRight=3;rotatable=0;labelPosition=right;points=[];portConstraint=eastwest;strokeColor=inherit;" vertex="1" parent="mmT6CkFbcpTNxsNClgFu-103">
          <mxGeometry y="52" width="160" height="8" as="geometry" />
        </mxCell>
        <mxCell id="mmT6CkFbcpTNxsNClgFu-106" value="+ method(type): type" style="text;strokeColor=none;fillColor=none;align=left;verticalAlign=top;spacingLeft=4;spacingRight=4;overflow=hidden;rotatable=0;points=[[0,0.5],[1,0.5]];portConstraint=eastwest;whiteSpace=wrap;html=1;" vertex="1" parent="mmT6CkFbcpTNxsNClgFu-103">
          <mxGeometry y="60" width="160" height="26" as="geometry" />
        </mxCell>
        <mxCell id="mmT6CkFbcpTNxsNClgFu-107" value="" style="endArrow=diamondThin;endFill=0;endSize=24;html=1;rounded=0;fontSize=12;curved=1;" edge="1" parent="1">
          <mxGeometry width="160" relative="1" as="geometry">
            <mxPoint x="672" y="541" as="sourcePoint" />
            <mxPoint x="832" y="541" as="targetPoint" />
          </mxGeometry>
        </mxCell>
        <mxCell id="mmT6CkFbcpTNxsNClgFu-111" value="" style="endArrow=diamondThin;endFill=0;endSize=24;html=1;rounded=0;fontSize=12;curved=1;entryX=0;entryY=0;entryDx=0;entryDy=0;" edge="1" parent="1" target="mmT6CkFbcpTNxsNClgFu-78">
          <mxGeometry width="160" relative="1" as="geometry">
            <mxPoint x="704" y="181" as="sourcePoint" />
            <mxPoint x="821" y="259" as="targetPoint" />
          </mxGeometry>
        </mxCell>
      </root>
    </mxGraphModel>
  </diagram>
</mxfile>
